<?xml version="1.0" encoding="UTF-8"?>
<svg width="80px" height="68px" viewBox="0 0 80 68" version="1.1" xmlns="http://www.w3.org/2000/svg" xmlns:xlink="http://www.w3.org/1999/xlink">
    <title>little puzzle</title>
    <defs>
        <linearGradient x1="41.0112935%" y1="60.5547027%" x2="37.3395838%" y2="34.4726783%" id="linearGradient-1">
            <stop stop-color="#3EA0E0" offset="0%"></stop>
            <stop stop-color="#1C83C7" offset="47.0935315%"></stop>
            <stop stop-color="#BEECFF" offset="100%"></stop>
        </linearGradient>
        <linearGradient x1="58.2260681%" y1="39.3304687%" x2="58.2260681%" y2="80.0002969%" id="linearGradient-2">
            <stop stop-color="#83DBFF" offset="0%"></stop>
            <stop stop-color="#0C7CC8" offset="100%"></stop>
        </linearGradient>
        <linearGradient x1="12.9845669%" y1="28.9993169%" x2="99.5818163%" y2="85.3594025%" id="linearGradient-3">
            <stop stop-color="#BEECFF" offset="0%"></stop>
            <stop stop-color="#207EB1" offset="99.0685096%"></stop>
            <stop stop-color="#AFD9E5" offset="100%"></stop>
        </linearGradient>
        <polygon id="path-4" points="-1.80026384e-12 3.64784879e-12 3.14782513 3.64784879e-12 3.14782513 3.09820114 -1.80026384e-12 3.09820114"></polygon>
        <polygon id="path-6" points="6.98000106e-13 -1.16072014e-12 11.3321705 -1.16072014e-12 11.3321705 11.8477507 6.98000106e-13 11.8477507"></polygon>
    </defs>
    <g id="页面-1" stroke="none" stroke-width="1" fill="none" fill-rule="evenodd">
        <g id="（募集中）提案详情页面" transform="translate(-467.000000, -339.000000)">
            <g id="编组-15" transform="translate(220.000000, 281.000000)">
                <g id="little-puzzle" transform="translate(292.123316, 101.922232) rotate(35.000000) translate(-292.123316, -101.922232) translate(257.766132, 72.855187)">
                    <path d="M36.5790858,8.25372315 C37.0123643,8.04139356 37.5691973,8.11921896 37.8252541,8.42757082 L37.8252541,8.42757082 L45.6924718,16.5900345 C46.4559849,17.5092345 47.794156,18.1678272 48.1669017,18.3357731 C49.4589004,18.9179017 50.1013623,18.3897387 50.557777,17.5022601 C50.9613492,16.7196873 51.4619718,15.7461684 53.1041182,14.9416246 C56.5862283,13.2354671 58.9502704,12.6557833 61.1211154,15.4643134 C63.2919605,18.2728434 64.5127514,21.4204211 60.7463123,24.2029126 C59.3272989,25.2512216 58.2539898,24.7329317 57.1593151,24.6837533 C55.9189886,24.6285749 55.4770771,24.9028782 54.5502149,26.0181663 C54.0418426,26.6265145 54.1540823,27.4595179 54.8550456,28.3039154 L54.8550456,28.3039154 L55.7500707,31.0120505 C56.005878,31.3197993 58.0539613,32.9739713 57.6214667,33.1858811 L57.6214667,33.1858811 L43.1407468,43.161232 C44.3100691,44.3012181 45.0881457,45.387274 45.4749766,46.4193996 C33.6870776,53.3285353 28.2546008,57.2652027 27.2567888,58.0057472 L27.1887485,58.0564044 C27.1194974,58.108141 27.0855659,58.1340901 27.0855659,58.1340901 C27.0855659,58.1340901 20.256486,52.1755121 14.9331735,46.5058986 C14.5478104,46.9900596 13.9901255,47.4834859 13.087287,47.9258175 C9.60600837,49.6312843 6.32000383,50.5994735 3.67361274,47.4138325 C1.02726915,44.2279204 -0.148068534,38.9912836 3.33433856,37.2854581 C4.97648495,36.4809143 7.98936361,38.973337 9.08369383,39.0224542 C9.10014472,39.0231867 9.11648571,39.0239147 9.132719,39.0246358 C7.37499958,35.1958763 5.99928543,30.5174909 5.00348269,24.9886166 C5.87283375,25.2929892 6.72827776,25.5954448 7.56981472,25.8959835 L14.7891454,22.1409153 C14.7954173,22.1375574 14.8013689,22.1380543 14.8067618,22.1356581 C16.6004343,21.2610384 19.2265705,19.511505 20.6078852,20.1019029 C23.0092672,21.128643 22.2008484,23.2221779 22.0272631,24.2226979 C21.9034884,24.9288911 21.3735408,26.0752293 22.0259134,26.8604331 C23.5620045,28.7099412 23.8405375,29.170042 27.5861047,27.208002 C31.3316719,25.2459619 31.6381264,23.3782128 30.1029264,21.529701 C29.4502092,20.7444361 27.5971882,20.310611 26.7118248,20.0987838 C25.4577946,19.7975261 23.7472446,17.0620206 23.5461215,14.9567287 C23.4731595,14.187414 25.0626201,15.3921637 26.9860795,14.445847 C26.99152,14.4431797 26.9929689,14.4389662 26.9968414,14.4371384 L26.9968414,14.4371384 L36.5725289,8.25870704 C36.5760094,8.25708917 36.5755578,8.25561201 36.5790858,8.25372315 Z" id="形状结合" fill="url(#linearGradient-1)"></path>
                    <g id="编组-2" transform="translate(43.666009, 11.544303)" fill="url(#linearGradient-2)">
                        <path d="M14.2419755,7.74382616 C13.3181952,7.43104047 12.7054193,6.85991085 13.0409696,5.41299818 C13.1377769,4.99555942 13.5383923,3.48683832 14.2851425,2.52740629 L0.487470118,17.9228544 C0.763015893,18.3333938 1.99231826,15.9070267 2.24229972,15.5856187 L4.67249553,14.1650442 C5.35854769,13.2841214 6.13376493,13.0164464 6.8002162,13.4338215 C8.02115155,14.1936621 8.35779098,14.6026561 8.5159202,15.9003068 C8.65502304,17.0456612 8.70783454,17.5502777 9.74469269,18.9827302 C11.7464395,21.7482071 15.6650584,20.0926547 18.1408302,17.7861535 C20.616602,15.4796522 21.6339539,10.9979385 19.4154504,7.69259826 C18.3692833,6.13380263 15.0567473,8.02078942 14.2419755,7.74382616 Z" id="Fill-1备份" transform="translate(10.563924, 11.477545) rotate(-80.000000) translate(-10.563924, -11.477545) "></path>
                    </g>
                    <path d="M57.9470744,29.0778537 L26.0360586,49.2289284 C26.4093561,50.5939012 26.5783192,53.543543 26.5429477,58.0778537 C30.920714,56.862156 51.9318997,42.4464833 59.0360586,37.5723544 C58.7489959,32.8341297 58.3860012,30.0026294 57.9470744,29.0778537 Z" id="路径-4" fill="url(#linearGradient-3)"></path>
                    <path d="M47.1099994,41.8472304 C46.1764549,41.5556069 45.5576048,41.0221523 45.89843,39.6689884 C45.9967591,39.2785965 46.4034301,37.8675833 47.1594159,36.9698435 L53.687038,27.9427601 C53.9406504,27.6416741 53.92068,27.0879905 53.6420347,26.7036951 C53.6396116,26.7005932 53.6382644,26.7012833 53.6361106,26.6981813 L46.0453167,18.458409 C46.0428937,18.4549624 46.038584,18.4542747 46.0350841,18.4494494 C44.794504,16.7440754 43.1409956,16.2483089 42.4117018,16.4503025 C40.4161789,17.0044878 40.8605067,19.2742312 40.7840078,20.5426522 C40.7308326,21.4380282 40.7681278,22.5132817 40.1223729,23.2806541 C38.6020465,25.0857906 36.9412721,26.4070513 34.4104853,23.1065012 C31.8796986,19.8059511 31.6980009,17.55865 33.2191359,15.752479 C33.8648907,14.9854513 34.5275641,14.9824148 35.2295656,14.98212 C36.2238441,14.9799785 37.1344381,15.2381538 37.7146577,12.7325059 C38.0482168,11.2912498 37.6921571,9.53218374 36.5428486,7.94054365 C36.539618,7.9357183 36.5390818,7.92985753 36.534774,7.92434311 L29.9569188,0.628439844 C29.6785425,0.244833792 29.2483729,0.177095855 28.9947606,0.478181859 L28.9936825,0.479561371 L22.9042145,7.11149493 C22.1482287,8.00923467 21.0448712,7.96522349 20.7534746,7.79572171 C19.5192115,7.08188793 19.443231,6.47927136 19.2848083,5.26576657 C19.1454513,4.19533109 18.9725315,2.86461244 17.9166407,1.40808083 C15.677786,-1.68075896 12.8913241,-1.6654532 10.2711123,1.44611342 C7.65116992,4.55767993 9.14531513,7.58169004 11.3836314,10.6694958 C12.4395223,12.1260274 13.4635664,12.4455388 14.2869491,12.7037664 C15.2191458,12.997459 15.6845733,13.1382722 16.1482965,14.7677796 C16.4016776,15.6557867 16.1475091,16.6381278 15.4532419,17.4627515 L9.10540915,25.5680642 C8.85206636,25.8688053 8.87203653,26.4228336 9.15068191,26.8071291 L32.855746,52.8582644 C33.1338529,53.2418705 33.5645614,53.3092635 33.8176348,53.0085225 L37.4286718,47.8596705 C38.1232083,47.0353914 38.9072066,46.7844183 39.5804899,47.1740642 C40.8139466,47.8834164 40.8907333,48.4908594 41.0491561,49.7040194 C41.1885129,50.7747996 41.2123563,51.2597183 42.268247,52.7165946 C44.5073712,55.8050895 46.9265129,55.3785296 49.2639973,52.7927907 C51.6014817,50.2070518 52.252441,46.9703406 50.0133169,43.8818457 C48.957426,42.4253141 47.933382,42.105458 47.1099994,41.8472304 Z" id="Fill-1备份" fill="#71CAF1" transform="translate(31.373228, 26.993228) rotate(-80.000000) translate(-31.373228, -26.993228) "></path>
                    <g id="编组" transform="translate(32.191588, 29.212551) rotate(-78.000000) translate(-32.191588, -29.212551) translate(24.762249, 21.667135)">
                        <path d="M5.77223934,2.45168797 C5.03387014,3.14682896 4.06406795,3.30646359 3.60584093,2.80799663 C3.1476139,2.30952968 3.37518109,1.34207079 4.11355029,0.646929805 C4.85243492,-0.0484720247 5.82223711,-0.208367494 6.28046414,0.290099459 C6.73869116,0.788827253 6.51112397,1.75628614 5.77223934,2.45168797" id="Fill-1" fill="#000000"></path>
                        <g transform="translate(11.710853, 8.985919)">
                            <mask id="mask-5" fill="white">
                                <use xlink:href="#path-4"></use>
                            </mask>
                            <g id="Clip-4"></g>
                            <path d="M2.4031107,2.45168797 C1.66471068,3.14682896 0.694868009,3.30646359 0.236621855,2.80799663 C-0.221624298,2.30952968 0.00595239134,1.34180995 0.744352408,0.646929805 C1.48326789,-0.0484720247 2.45311056,-0.208367494 2.91135671,0.290099459 C3.36960287,0.788827253 3.14202618,1.75628614 2.4031107,2.45168797" id="Fill-3" fill="#000000" mask="url(#mask-5)"></path>
                        </g>
                        <g transform="translate(-0.000000, 3.243083)">
                            <mask id="mask-7" fill="white">
                                <use xlink:href="#path-6"></use>
                            </mask>
                            <g id="Clip-6"></g>
                            <path d="M11.0052603,9.3687207 L2.69019885,0.390725827 C2.43025628,0.110212143 2.05532918,-0.0314719201 1.67575102,0.00589530525 C1.29643125,0.044300509 0.955611922,0.258124076 0.756133133,0.585087298 C0.655101778,0.749347392 -1.67146171,4.68302634 2.37780266,9.0549917 C6.42784221,13.4282545 10.5019122,11.3811015 10.6732263,11.2928733 C11.0114617,11.116417 11.2491825,10.7915297 11.314039,10.4126676 C11.3796706,10.0361409 11.2649444,9.64923438 11.0052603,9.3687207 Z" id="Fill-5" fill="#000000" mask="url(#mask-7)"></path>
                        </g>
                    </g>
                </g>
            </g>
        </g>
    </g>
</svg>