<?xml version="1.0" encoding="UTF-8"?>
<svg width="1096px" height="467px" viewBox="0 0 1096 467" version="1.1" xmlns="http://www.w3.org/2000/svg" xmlns:xlink="http://www.w3.org/1999/xlink">
    <title>bg22</title>
    <defs>
        <linearGradient x1="39.1191512%" y1="74.1909932%" x2="14.7486623%" y2="35.5292987%" id="linearGradient-1">
            <stop stop-color="#E4F7E5" offset="0%"></stop>
            <stop stop-color="#9AEED9" offset="48.3325044%"></stop>
            <stop stop-color="#68DAC0" offset="100%"></stop>
        </linearGradient>
        <linearGradient x1="58.2260681%" y1="39.8426553%" x2="58.2260681%" y2="80.0002969%" id="linearGradient-2">
            <stop stop-color="#92EBD5" offset="0%"></stop>
            <stop stop-color="#72DEC5" offset="100%"></stop>
        </linearGradient>
        <linearGradient x1="18.2462311%" y1="38.0973368%" x2="42.4489594%" y2="77.374844%" id="linearGradient-3">
            <stop stop-color="#E3FFF3" offset="0%"></stop>
            <stop stop-color="#E4F7E5" offset="100%"></stop>
        </linearGradient>
        <linearGradient x1="73.9343118%" y1="40.4016562%" x2="40.4692003%" y2="87.2528068%" id="linearGradient-4">
            <stop stop-color="#99FEE0" offset="0%"></stop>
            <stop stop-color="#DAFBEA" offset="100%"></stop>
        </linearGradient>
        <polygon id="path-5" points="-1.90308138e-14 -2.78214263e-13 8.06492064 -2.78214263e-13 8.06492064 7.93236243 -1.90308138e-14 7.93236243"></polygon>
        <polygon id="path-7" points="-1.37500737e-13 -1.54757151e-13 29.0337143 -1.54757151e-13 29.0337143 30.3339415 -1.37500737e-13 30.3339415"></polygon>
        <linearGradient x1="39.5860547%" y1="20.5662393%" x2="58.1500442%" y2="67.8975249%" id="linearGradient-9">
            <stop stop-color="#71CAF1" offset="0%"></stop>
            <stop stop-color="#3D86B5" offset="100%"></stop>
        </linearGradient>
        <linearGradient x1="59.9595739%" y1="34.5996428%" x2="44.2243168%" y2="65.4861857%" id="linearGradient-10">
            <stop stop-color="#CBF1FF" offset="0%"></stop>
            <stop stop-color="#7ECCEE" offset="100%"></stop>
        </linearGradient>
        <radialGradient cx="54.2020009%" cy="50%" fx="54.2020009%" fy="50%" r="81.9923623%" gradientTransform="translate(0.542020,0.500000),scale(0.425373,1.000000),rotate(63.157680),translate(-0.542020,-0.500000)" id="radialGradient-11">
            <stop stop-color="#EEEEEE" offset="0%"></stop>
            <stop stop-color="#56A7C0" offset="100%"></stop>
        </radialGradient>
        <linearGradient x1="72.4182218%" y1="6.96585124%" x2="24.5767506%" y2="86.6947477%" id="linearGradient-12">
            <stop stop-color="#E7F5F9" offset="0%"></stop>
            <stop stop-color="#9BC5D2" offset="100%"></stop>
        </linearGradient>
        <linearGradient x1="72.4182218%" y1="6.96585124%" x2="31.3396931%" y2="50%" id="linearGradient-13">
            <stop stop-color="#9BC5D2" offset="0%"></stop>
            <stop stop-color="#D5F6FF" offset="100%"></stop>
        </linearGradient>
        <linearGradient x1="45.2576747%" y1="50%" x2="75.2924018%" y2="41.4451357%" id="linearGradient-14">
            <stop stop-color="#2E77A7" offset="0%"></stop>
            <stop stop-color="#85C7E2" offset="100%"></stop>
        </linearGradient>
        <linearGradient x1="6.82480088%" y1="39.4573497%" x2="89.5716512%" y2="39.4573497%" id="linearGradient-15">
            <stop stop-color="#F3FCFF" offset="0%"></stop>
            <stop stop-color="#D0EDF6" offset="100%"></stop>
        </linearGradient>
    </defs>
    <g id="页面-1" stroke="none" stroke-width="1" fill="none" fill-rule="evenodd">
        <g id="选择提案的主类目-nft时" transform="translate(-175.000000, -106.000000)">
            <g id="编组-4" transform="translate(1.000000, 0.000000)">
                <g id="bg22" transform="translate(174.966008, 106.976125)">
                    <g id="编组-5" opacity="0.404599144" transform="translate(139.042726, 274.016090) rotate(38.000000) translate(-139.042726, -274.016090) translate(36.044816, 180.004579)">
                        <g id="编组-4" transform="translate(-0.000000, -0.000000)">
                            <path d="M91.9483174,19.1264374 C93.0517874,18.583374 94.4699248,18.7824236 95.1220479,19.5710779 L95.1220479,19.5710779 L115.15821,40.4477535 C117.102719,42.7987397 120.510762,44.4831853 121.460067,44.9127312 C124.750519,46.4016089 126.386735,45.050756 127.549128,42.7809018 C128.576942,40.7793593 129.851924,38.2894445 134.034128,36.2317079 C142.902336,31.8679645 148.923058,30.3853399 154.451748,37.5685597 C159.980437,44.7517796 163.089537,52.8021625 153.497202,59.9187848 C150.929409,61.823849 148.806102,61.7060882 146.791944,61.4331576 L146.346014,61.3707113 C145.679404,61.2754876 145.022162,61.1783945 144.361868,61.1486043 C141.203016,61.0074776 140.077559,61.7090477 137.717034,64.5615575 C136.422316,66.1174958 136.708167,68.2480217 138.493375,70.4076899 L138.493375,70.4076899 L140.772817,77.3341352 C141.04191,77.6592466 142.089738,78.5718652 143.149472,79.5693859 L143.483626,79.8866285 C144.87013,81.2153467 146.137499,82.5994601 145.538872,82.8940198 L145.538872,82.8940198 L98.7430156,115.269836 C159.290346,153.618767 191.458409,177.869535 195.247204,188.022138 C127.457424,188.20279 82.5213237,160.644716 82.5213237,160.644716 C82.5213237,160.644716 55.1168422,136.113531 36.9955278,116.73341 C36.0094048,118.045608 34.5593281,119.393132 32.1196059,120.593529 C23.2535155,124.955505 14.8847473,127.431789 8.14494126,119.284053 C1.40525615,111.135625 -1.58808377,97.7421722 7.28088071,93.3792782 C11.463085,91.3215416 19.1362585,97.6962713 21.9232893,97.8218956 C21.9638637,97.8237099 22.0041756,97.8255135 22.0442301,97.8273005 C17.5716015,88.0348717 14.0679445,76.0692277 11.5318426,61.9283361 C13.7113621,63.227043 15.8715288,64.516136 18.0123429,65.795615 C17.2836256,65.3521864 16.6894152,64.9459387 17.34428,64.6233299 L17.34428,64.6233299 L36.4538842,54.6449302 C36.4698576,54.6363417 36.4850149,54.6376128 36.4987498,54.631484 C41.0668593,52.3945184 47.7550804,47.9198349 51.2730008,49.4298625 C57.3888199,52.0558979 55.329946,57.4104148 54.8878602,59.9693888 C54.5726319,61.7755794 53.2229659,64.7075044 54.884423,66.7157762 C58.7965266,71.4461593 59.5058919,72.6229334 69.0450703,67.6047336 C78.5842488,62.5865338 79.3647244,57.8094965 75.4548901,53.0816617 C73.7925556,51.0732335 69.0732976,49.9636635 66.8184618,49.421885 C63.6247084,48.6513751 59.2682944,41.654926 58.7560759,36.2703388 C58.5702567,34.3027058 62.6182815,37.3840265 67.5169313,34.9636853 C67.5307871,34.9568635 67.5344772,34.9460867 67.5443396,34.941412 L67.5443396,34.941412 L91.9316182,19.1391845 C91.9404822,19.1350465 91.9393323,19.1312684 91.9483174,19.1264374 Z" id="形状结合" fill="url(#linearGradient-1)"></path>
                            <g id="编组-2" transform="translate(109.237793, 25.099937)" fill="url(#linearGradient-2)">
                                <path d="M36.4030839,20.0584801 C34.0251203,19.2719604 32.4504065,17.8279245 33.3256382,14.1556948 C33.5781453,13.0962453 34.6214817,9.26677442 36.5526506,6.82790574 L0.887663328,45.976354 C1.5946321,47.0155682 4.77995296,40.8526071 5.42643109,40.0355919 L11.6986467,36.4147674 C13.4728407,34.1754656 15.4722749,33.4908713 17.1864218,34.5445495 C20.3267653,36.4627378 21.1911627,37.4975833 21.5890694,40.7876155 C21.9390711,43.6915229 22.0714392,44.9709793 24.7325358,48.5964469 C29.8700193,55.5957344 39.9791136,51.3680026 46.3752743,45.4998925 C52.7714349,39.6317823 55.4257395,28.2574621 49.7337168,19.8905276 C47.0495629,15.9446879 38.5004335,20.7549456 36.4030839,20.0584801 Z" id="Fill-1备份" transform="translate(26.873667, 29.534109) rotate(-80.000000) translate(-26.873667, -29.534109) "></path>
                            </g>
                            <path d="M147.307381,75.2213134 L68.0552533,125.194269 C100.104795,163.43153 138.241325,184.145648 182.464842,187.336624 C193.918009,188.169615 203.628903,188.330501 205.99582,187.336624 C200.149051,178.678743 178.245471,145.431519 167.618101,125.194269 C162.068744,114.626864 155.298504,97.9692125 147.307381,75.2213134 Z" id="路径-4" fill="url(#linearGradient-3)"></path>
                            <path d="M120.676821,107.185815 C118.286519,106.438394 116.701877,105.071494 117.574109,101.604779 C117.825751,100.60462 118.866555,96.9897143 120.801886,94.6899236 L137.512282,71.5644116 C138.161532,70.7931026 138.110235,69.3745547 137.396686,68.3899032 C137.390481,68.3819554 137.387032,68.3837231 137.381517,68.3757751 L117.943849,47.2631384 C117.937644,47.2543074 117.926609,47.2525442 117.917647,47.2401808 C114.740799,42.870627 110.507066,41.5999746 108.639868,42.1172658 C103.530767,43.5364965 104.669087,49.3517311 104.473601,52.6014136 C104.337721,54.8953585 104.433532,57.6501783 102.780393,59.6159998 C98.8883423,64.2403199 94.6365488,67.6249045 88.1558238,59.1681102 C81.6750988,50.7113158 81.2092143,44.9536572 85.103335,40.3266866 C86.7564735,38.3617484 88.4531584,38.3541671 90.2505386,38.3536216 C92.7962538,38.3484326 95.1277841,39.0101522 96.6126085,32.5908346 C97.4662105,28.8984241 96.5540415,24.3915754 93.6109163,20.3134363 C93.6026435,20.3010727 93.6012687,20.2860572 93.5902376,20.271928 L76.7463451,1.5777947 C76.0334854,0.594909493 74.9320739,0.421235668 74.2828239,1.19254471 L74.280064,1.19607871 L58.6907867,18.1853274 C56.7554556,20.4851181 53.9304445,20.3720311 53.1843121,19.9376789 C50.0239347,18.1084616 49.8292166,16.5645301 49.4232338,13.4554732 C49.0661088,10.7129667 48.6229731,7.30360257 45.9190714,3.57164045 C40.1858625,-4.34266282 33.0515074,-4.30428274 26.3437395,3.66679363 C19.6366612,11.6378698 23.4631228,19.3858562 29.194953,27.29751 C31.8988548,31.0294721 34.5208771,31.8483693 36.6291143,32.5101968 C39.0159662,33.2629186 40.2076725,33.6238225 41.3954606,37.7987729 C42.0444743,40.0739305 41.3940039,42.5906206 39.616673,44.7031059 L23.3663283,65.467087 C22.7177682,66.2375126 22.7690649,67.6569437 23.4826137,68.6415953 L84.184022,135.391914 C84.8961919,136.3748 85.9989831,136.54759 86.6468534,135.777164 L95.8908863,122.586842 C97.6689067,120.47524 99.6761534,119.832479 101.400121,120.830957 C104.558433,122.648692 104.755216,124.204989 105.161199,127.313162 C105.518324,130.056552 105.579517,131.298925 108.283418,135.03177 C114.017317,142.94519 120.211075,141.853063 126.195115,135.229078 C132.179155,128.605092 133.84488,120.312805 128.110982,112.399385 C125.40708,108.667423 122.785058,107.847643 120.676821,107.185815 Z" id="Fill-1备份" fill="url(#linearGradient-4)" transform="translate(80.377259, 69.124598) rotate(-80.000000) translate(-80.377259, -69.124598) "></path>
                            <g id="编组" transform="translate(82.474933, 74.803645) rotate(-78.000000) translate(-82.474933, -74.803645) translate(63.440512, 55.485022)">
                                <path d="M14.7888305,6.27708681 C12.8970834,8.05686482 10.4123908,8.46557932 9.23838514,7.18934826 C8.06437946,5.9131172 8.64742053,3.43612034 10.5391676,1.65634233 C12.4322352,-0.12410352 14.9169278,-0.533485854 16.0909335,0.742745207 C17.2649392,2.0196441 16.6818981,4.49664097 14.7888305,6.27708681" id="Fill-1" fill="#7FDEC8"></path>
                                <g transform="translate(30.003922, 23.006759)">
                                    <mask id="mask-6" fill="white">
                                        <use xlink:href="#path-5"></use>
                                    </mask>
                                    <g id="Clip-4"></g>
                                    <path d="M6.15691669,6.27708681 C4.26509065,8.05686482 1.78029437,8.46557932 0.606239675,7.18934826 C-0.567815015,5.9131172 0.0152503909,3.4354525 1.90707642,1.65634233 C3.8002231,-0.12410352 6.28501939,-0.533485854 7.45907408,0.742745207 C8.63312877,2.0196441 8.05006337,4.49664097 6.15691669,6.27708681" id="Fill-3" fill="#7FDEC8" mask="url(#mask-6)"></path>
                                </g>
                                <g transform="translate(0.000000, 8.303305)">
                                    <mask id="mask-8" fill="white">
                                        <use xlink:href="#path-7"></use>
                                    </mask>
                                    <g id="Clip-6"></g>
                                    <path d="M28.1961504,23.9868507 L6.8924541,1.00038013 C6.22646533,0.282177502 5.26587915,-0.0805779435 4.29337667,0.0150938224 C3.32153621,0.113423137 2.44833623,0.660878242 1.93725936,1.49800619 C1.67841085,1.91856333 -4.2823872,11.9900099 6.09207595,23.1836065 C16.4685251,34.380525 26.9065419,29.1391739 27.3454589,28.9132822 C28.2120388,28.4614989 28.8210941,27.629686 28.9872603,26.6596806 C29.1554125,25.6956547 28.8614771,24.7050533 28.1961504,23.9868507 Z" id="Fill-5" fill="#7FDEC8" mask="url(#mask-8)"></path>
                                </g>
                            </g>
                        </g>
                    </g>
                    <g id="Group-17" opacity="0.6" transform="translate(931.550646, 232.576815) rotate(8.000000) translate(-931.550646, -232.576815) translate(797.291921, 16.583168)">
                        <polygon id="Path-49" fill="url(#linearGradient-9)" fill-rule="nonzero" points="133.233074 1.00335086 130.327656 10.8310321 130.327656 296.112586 133.233074 299.003351 266.327656 220.722437"></polygon>
                        <polygon id="Path-50" fill="url(#linearGradient-10)" fill-rule="nonzero" points="133.727529 -8.52176883e-13 0.727528798 219.719086 133.727529 298 133.727529 161.228856"></polygon>
                        <polygon id="路径-18" fill="url(#radialGradient-11)" points="0.296698273 244.358474 122.954206 219.545978 268.296698 244.358474 136.841002 333.545978"></polygon>
                        <polygon id="Path-51" fill="url(#linearGradient-12)" fill-rule="nonzero" points="135.766176 322.310652 134.138218 324.307122 134.138218 426.139845 135.766176 430.910263 268.138218 243.910263"></polygon>
                        <polygon id="Path-51备份" fill="url(#linearGradient-13)" fill-rule="nonzero" transform="translate(68.756460, 337.674753) scale(-1, 1) translate(-68.756460, -337.674753) " points="3.38441747 322.575142 1.75645961 324.571612 1.75645961 426.404335 3.38441747 431.174753 135.75646 244.174753"></polygon>
                        <polygon id="Path-52备份" fill="url(#linearGradient-14)" fill-rule="nonzero" transform="translate(200.838214, 338.487295) scale(-1, 1) translate(-200.838214, -338.487295) " points="267.338214 431.987295 267.338214 323.387684 134.338214 244.987295"></polygon>
                        <polygon id="Path-53" fill="#EEFAFF" fill-rule="nonzero" points="135.517449 297.755388 268.517449 220.310506 135.517449 160.755388"></polygon>
                        <polygon id="Path-53备份" fill="url(#linearGradient-15)" fill-rule="nonzero" transform="translate(66.500000, 229.110678) scale(-1, 1) translate(-66.500000, -229.110678) " points="2.59952309e-12 297.610678 133 220.165796 2.59952309e-12 160.610678"></polygon>
                        <polygon id="Path-54备份" fill="#8FCFE3" fill-rule="nonzero" transform="translate(201.431231, 228.859979) scale(-1, 1) translate(-201.431231, -228.859979) " points="134.431231 220.322914 268.431231 297.859979 268.431231 159.859979"></polygon>
                    </g>
                </g>
            </g>
        </g>
    </g>
</svg>