<?xml version="1.0" encoding="UTF-8"?>
<svg width="46px" height="51px" viewBox="0 0 46 51" version="1.1" xmlns="http://www.w3.org/2000/svg" xmlns:xlink="http://www.w3.org/1999/xlink">
    <title>uniswap</title>
    <g id="页面-1" stroke="none" stroke-width="1" fill="none" fill-rule="evenodd">
        <g id="选择提案的主类目-nft时" transform="translate(-413.000000, -541.000000)" fill-rule="nonzero">
            <g id="编组-9" transform="translate(387.000000, 520.000000)">
                <g id="编组-8" transform="translate(11.000000, 10.000000)">
                    <g id="uniswap" transform="translate(15.000000, 11.000000)">
                        <path d="M0,27.9285714 C0,36.1456798 4.38377509,43.7386014 11.5,47.8471557 C18.6162247,51.95571 27.3837753,51.95571 34.5,47.8471557 C41.6162249,43.7386014 46,36.1456798 46,27.9285714 C46,15.2260221 35.7025492,4.92857143 23,4.92857143 C10.2974508,4.92857143 0,15.2260221 0,27.9285714 Z" id="路径" fill="#FFFFFF"></path>
                        <path d="M16.8582154,9.99487265 C16.3609314,9.92684349 16.3375167,9.90308728 16.5738938,9.88041089 C17.0243484,9.8113019 18.0668608,9.90308728 18.8016369,10.0639816 C20.5075664,10.4537995 22.0462478,11.4634387 23.681933,13.2300372 L24.1078579,13.7127203 L24.7244454,13.6209349 C27.3535837,13.2073608 30.0540811,13.5291495 32.3052389,14.5387887 C32.9207115,14.813065 33.8929798,15.3637772 34.0111683,15.5019952 C34.0579978,15.547348 34.1293569,15.8464603 34.1773013,16.1444928 C34.3423193,17.223241 34.2720752,18.0255531 33.9163945,18.6453744 C33.7268468,18.9898395 33.7268468,19.0816249 33.8450353,19.3796574 C33.9398092,19.6085809 34.2241308,19.7694753 34.4850376,19.7694753 C35.0536808,19.7694753 35.6446236,18.8980541 35.9300602,17.681088 L36.0482487,17.1994847 L36.2612112,17.4294881 C37.4698566,18.7360799 38.4175951,20.5501909 38.5591984,21.8351861 L38.6071429,22.1785714 L38.3941804,21.8805389 C38.0384997,21.352503 37.7062337,21.0080379 37.2568942,20.7100054 C36.4507589,20.1830494 35.5977942,20.022155 33.3477513,19.9076932 C31.3106709,19.7921517 30.148855,19.6323371 29.0115687,19.2651956 C27.0692621,18.6453744 26.0746941,17.8419824 23.7767069,14.882174 C22.7576092,13.5755821 22.1176069,12.8628957 21.4787196,12.2668307 C20.0805265,10.959159 18.6823334,10.2702288 16.8582154,9.99487265 L16.8582154,9.99487265 Z" id="路径" fill="#FF007A"></path>
                        <path d="M34.5132088,13.1029155 C34.559765,12.2080457 34.6783724,11.6199568 34.9366482,11.0794908 C35.030869,10.8668485 35.1250898,10.6785714 35.1494764,10.6785714 C35.171646,10.6785714 35.1250898,10.8446983 35.0552556,11.0329753 C34.866814,11.5501835 34.8424274,12.2789265 34.9610348,13.1029155 C35.1250898,14.1616971 35.1960325,14.3034587 36.3266822,15.4563788 C36.8454508,15.9968448 37.4573318,16.6801798 37.6923296,16.9625954 L38.0935993,17.4798035 L37.6923296,17.1032494 C37.1979475,16.6325567 36.0672978,15.7387944 35.8079135,15.6202906 C35.6438585,15.5261521 35.6194719,15.5261521 35.501973,15.6446559 C35.4077522,15.7387944 35.3844741,15.8794485 35.3844741,16.561676 C35.3611961,17.6215651 35.2193106,18.2794273 34.866814,18.9627623 C34.6783724,19.3149512 34.6539858,19.2451779 34.8191493,18.8442585 C34.9366482,18.5385852 34.9610348,18.3979311 34.9610348,17.385665 C34.9610348,15.337875 34.7249285,14.8439246 33.2883384,14.0210431 C32.8584723,13.7748004 32.4183826,13.5468187 31.9692472,13.3377081 C31.592364,13.1737963 31.3097016,13.0320347 31.3340881,13.0320347 C31.3806443,12.9855192 32.7706782,13.3853311 33.3116165,13.6201237 C34.1363256,13.9501623 34.2782111,13.9745276 34.3724319,13.9501623 C34.4422661,13.8792815 34.4899308,13.6910045 34.5132088,13.1029155 L34.5132088,13.1029155 Z M17.9314561,16.609299 C16.9426919,15.2437365 16.3064244,13.1261733 16.4483098,11.5501835 L16.494866,11.0551256 L16.7309722,11.1027486 C17.1544116,11.1736294 17.8837914,11.456045 18.2385051,11.6675798 C19.1807131,12.232411 19.6041525,13.0076695 20.0043137,14.9380632 C20.1218126,15.5028944 20.2869762,16.1618641 20.3579189,16.3733989 C20.4754178,16.7278028 20.9232437,17.5506843 21.3001269,18.0678925 C21.5595112,18.4444466 21.3943477,18.6327237 20.8057448,18.5862082 C19.9100929,18.4920696 18.7096091,17.6680806 17.9314561,16.609299 Z M33.3116165,26.8460338 C28.648241,24.9632631 26.9999312,23.3396503 26.9999312,20.5863751 C26.9999312,20.1865632 27.0232093,19.8565246 27.0232093,19.8565246 C27.0464874,19.8565246 27.2116509,19.9982862 27.4233706,20.162198 C28.3655786,20.9153062 29.4252855,21.2453448 32.3694085,21.6684145 C34.0897695,21.9275723 35.0785337,22.1158494 35.973077,22.4215227 C38.8229792,23.3629081 40.5898964,25.2921942 41.0133357,27.9037079 C41.1319431,28.6568161 41.0610004,30.0932594 40.8725588,30.8463677 C40.7073952,31.4344566 40.2362912,32.5176035 40.1187923,32.5408613 C40.0955143,32.5408613 40.0478496,32.423465 40.0478496,32.2351879 C40.0012935,31.2461796 39.5069114,30.3047942 38.6822022,29.5760512 C37.6923296,28.7288044 36.420903,28.0919849 33.3116165,26.8460338 L33.3116165,26.8460338 Z M30.0149969,27.6223998 C29.966549,27.2866068 29.8875189,26.9559341 29.7788906,26.634499 L29.6613918,26.2800951 L29.8731114,26.5403604 C30.1790519,26.8925493 30.4151582,27.3156189 30.6268779,27.9048154 C30.7920414,28.3522503 30.7920414,28.4929043 30.7920414,29.2227549 C30.7920414,29.9282401 30.7687633,30.0932594 30.6268779,30.4930713 C30.4176954,31.0851751 30.0800456,31.6237328 29.6381137,32.0701686 C28.7901265,32.9406731 27.6827549,33.4113658 26.1042793,33.6229006 C25.8216169,33.6461584 25.0212944,33.7170392 24.3151926,33.7646622 C22.5482754,33.8588007 21.3710696,34.0470778 20.3102542,34.4236319 C20.1694773,34.4701474 20.0275918,34.5177704 20.0043137,34.4934052 C19.9577576,34.4468897 20.6871374,34.0227125 21.2768488,33.7402969 C22.1004495,33.3415925 22.9484367,33.1289502 24.8095747,32.7989116 C25.7273961,32.6582575 26.6696042,32.4699805 26.9046019,32.3758419 C29.2368439,31.6459914 30.3918801,29.8341016 30.0149969,27.6223998 L30.0149969,27.6223998 Z" id="形状" fill="#FF007A"></path>
                        <path d="M32.0347239,31.3618239 C31.4297326,30.0338809 31.2894448,28.7750217 31.6160524,27.5874393 C31.6620843,27.4701066 31.7092123,27.3538705 31.7552442,27.3538705 C31.8023721,27.3538705 31.941564,27.4240508 32.0818518,27.517259 C32.3613315,27.7036755 32.9433067,28.0293559 34.4338649,28.845202 C36.3189825,29.8704924 37.3908692,30.6622139 38.1361483,31.5712682 C38.7882675,32.3640863 39.183923,33.272044 39.3702428,34.3905426 C39.4875146,35.0199723 39.4173707,36.5343317 39.2540669,37.1637613 C38.7422355,39.1441618 37.577189,40.7276049 35.8783911,41.6377557 C35.721874,41.7288206 35.5579952,41.8065842 35.3884797,41.870228 C35.3654637,41.870228 35.4586236,41.6366592 35.5978154,41.3570345 C36.1567747,40.1694521 36.2269187,39.0279256 35.8071512,37.7460385 C35.5517835,36.9532204 35.0158402,35.9981103 33.9439535,34.3905426 C32.6638271,32.5263783 32.3613315,32.0373093 32.0347239,31.3618239 L32.0347239,31.3618239 Z M14.6850654,38.4917042 C16.4090712,37.0464286 18.5276366,36.0222347 20.4839942,35.6954577 C21.3224332,35.5561937 22.7198314,35.6022495 23.4881265,35.8116938 C24.7222209,36.1384709 25.8401395,36.8369842 26.4221148,37.6988861 C26.9810741,38.5377601 27.2375378,39.2603979 27.4940015,40.8679655 C27.5871614,41.4973951 27.7033372,42.1498526 27.7263532,42.2891167 C27.912673,43.1279906 28.2853125,43.7804482 28.7511119,44.1302531 C29.473375,44.6664745 30.7304855,44.6895024 31.9645799,44.2234613 C32.1750117,44.153281 32.3613315,44.0831007 32.3613315,44.1072252 C32.4073634,44.153281 31.7782602,44.5732663 31.3595887,44.7827106 C30.7776134,45.0853632 30.311814,45.1785714 29.6827108,45.1785714 C28.5647922,45.1785714 27.6112733,44.5962942 26.8418823,43.4306432 C26.6785785,43.1981709 26.3530669,42.5226855 26.0735873,41.8932559 C25.2581643,40.0060636 24.8394928,39.4468143 23.883782,38.8173847 C23.045343,38.2822599 21.9745523,38.1649272 21.1591294,38.5618845 C20.0883387,39.0739814 19.808859,40.4479802 20.5541381,41.2879508 C20.8566337,41.6366592 21.415593,41.9162838 21.8813925,41.9864641 C22.2891899,42.0404659 22.7003592,41.9149355 23.0085501,41.6423417 C23.3167409,41.3697478 23.4916828,40.9768648 23.4881265,40.5653129 C23.4881265,40.0060636 23.2787907,39.6792866 22.7198314,39.4237864 C21.9745523,39.0970094 21.1591294,39.4698422 21.1832413,40.1913835 C21.1832413,40.4951326 21.3224332,40.6815491 21.6249288,40.8219097 C21.8112485,40.9151179 21.8112485,40.9151179 21.6720567,40.8909934 C20.9969216,40.7517294 20.8336178,39.9128554 21.3695611,39.3777306 C22.0216803,38.7241765 23.3949666,39.0048977 23.860766,39.9128554 C24.0470858,40.2856883 24.0701017,41.031354 23.9078939,41.4973951 C23.5111424,42.5226855 22.3932238,43.0578103 21.2522892,42.7551578 C20.4850902,42.5457134 20.1584826,42.3362691 19.2268838,41.381159 C17.5960378,39.7034111 16.9680306,39.376634 14.6390334,39.0279256 L14.19625,38.9577453 L14.6850654,38.4917042 L14.6850654,38.4917042 Z M2.43618459,1.00226248 C7.86137786,7.59592146 16.2227515,17.8477288 16.641423,18.4069782 C16.9910465,18.8730192 16.8507587,19.3160324 16.2687834,19.6417129 C15.9432718,19.8281293 15.2681367,20.0145458 14.9426251,20.0145458 C14.5699855,20.0145458 14.1261061,19.8281293 13.8247065,19.5254768 C13.6142747,19.3160324 12.7067878,17.9880895 10.6572704,14.7959821 C9.69988082,13.2883951 8.72915322,11.7893288 7.745202,10.2989598 C7.65204212,10.2518074 7.65204212,10.2518074 10.4939666,15.3322035 C12.2870204,18.5232143 12.8689956,19.6647408 12.8689956,19.8051014 C12.8689956,20.107754 12.7758358,20.2711425 12.4031962,20.6900312 C11.774093,21.3896411 11.4946133,22.1813627 11.2852776,23.8360827 C11.0529259,25.6761226 10.4238227,26.9810376 8.6307689,29.1950069 C7.5829942,30.499922 7.41969041,30.7323942 7.16322672,31.2675191 C6.83771513,31.9210732 6.74455524,32.293906 6.6974273,33.1316834 C6.65139536,34.0177098 6.74455524,34.5769591 7.00101893,35.415833 C7.23337064,36.1614988 7.48983432,36.6505678 8.11893754,37.6056779 C8.65378487,38.4445518 8.98039247,39.0739814 8.98039247,39.3064537 C8.98039247,39.4928701 9.02642441,39.4928701 9.86486337,39.3064537 C11.8672529,38.8415092 13.5211148,38.0486911 14.4296977,37.0694565 C14.988657,36.4641514 15.1278488,36.1373743 15.1278488,35.2995969 C15.1278488,34.7633755 15.1048329,34.6471394 14.964545,34.3203623 C14.7321933,33.8082654 14.2894099,33.3882802 13.3347951,32.7369192 C12.0776846,31.8739208 11.5417413,31.1754074 11.4014535,30.2433252 C11.2852776,29.4516037 11.4255654,28.9153823 12.1248126,27.4470787 C12.8459797,25.9338159 13.0322994,25.3032897 13.1484753,23.7659024 C13.2186192,22.7877644 13.3347951,22.390807 13.6142747,22.0881545 C13.9167703,21.762474 14.173234,21.6451413 14.8954971,21.5519331 C16.0824637,21.3896411 16.8507587,21.085892 17.4568459,20.5036148 C17.9927893,20.0145458 18.225141,19.5254768 18.248157,18.8039355 L18.2722689,18.2666175 L17.9686773,17.9409371 C16.8748707,16.6831744 1.71501749,0 1.64377757,0 C1.6218576,0 1.99449714,0.443013176 2.43618459,1.00226248 Z M9.58538372,34.1339459 C9.83802684,33.6940225 9.70562055,33.1334037 9.28288809,32.8531553 C8.88723258,32.5965586 8.28114534,32.7127947 8.28114534,33.0625997 C8.28114534,33.1558079 8.32827328,33.2490161 8.46746511,33.2950719 C8.67680085,33.4124046 8.70091282,33.5286408 8.53760902,33.7852375 C8.37430522,34.0407377 8.37430522,34.2743065 8.58364096,34.437695 C8.91024856,34.6931952 9.35303201,34.5539312 9.58538372,34.1339459 Z M19.017548,21.8787101 C18.4585887,22.0420986 17.9215494,22.6474038 17.7593416,23.2538055 C17.6661817,23.6266383 17.7133096,24.3021238 17.8755174,24.5115681 C18.1319811,24.8372486 18.3654288,24.9304568 19.017548,24.9304568 C20.2976744,24.9304568 21.3925771,24.3712075 21.5087529,23.6957221 C21.6249288,23.1364728 21.1361134,22.3688757 20.4609782,22.0179742 C20.1113547,21.8315577 19.3890916,21.762474 19.017548,21.8787101 L19.017548,21.8787101 Z M20.5081062,23.0432646 C20.6944259,22.7636399 20.624282,22.4620839 20.2746585,22.251543 C19.6455552,21.8556822 18.6909404,22.1813627 18.6909404,22.7877644 C18.6909404,23.090417 19.1797558,23.4160974 19.6455552,23.4160974 C19.9480509,23.4160974 20.3678183,23.229681 20.5070102,23.0432646 L20.5081062,23.0432646 Z" id="形状" fill="#FF007A"></path>
                    </g>
                </g>
            </g>
        </g>
    </g>
</svg>