<?xml version="1.0" encoding="UTF-8"?>
<svg width="211px" height="199px" viewBox="0 0 211 199" version="1.1" xmlns="http://www.w3.org/2000/svg" xmlns:xlink="http://www.w3.org/1999/xlink">
    <title>1</title>
    <defs>
        <linearGradient x1="19.4728733%" y1="67.0456287%" x2="94.2335204%" y2="50%" id="linearGradient-1">
            <stop stop-color="#FFFFFF" offset="0%"></stop>
            <stop stop-color="#FFFFFF" stop-opacity="0" offset="100%"></stop>
        </linearGradient>
    </defs>
    <g id="页面-1" stroke="none" stroke-width="1" fill="none" fill-rule="evenodd" fill-opacity="0.345580201">
        <g id="我的-my-create-operate-01" transform="translate(-179.000000, -630.000000)" fill="#FFFFFF" stroke="url(#linearGradient-1)" stroke-width="1.5">
            <g id="矩形" transform="translate(177.589844, 523.000000)">
                <path d="M194.885219,106.949908 C199.224461,106.655135 203.272387,108.147093 206.309197,110.797555 C209.346006,113.448017 211.371698,117.256982 211.666471,121.596224 C211.732628,122.570098 211.708108,123.548013 211.593226,124.517347 L211.593226,124.517347 L191.879708,290.853655 C191.41003,294.816648 189.495259,298.290734 186.700226,300.774072 C183.905193,303.25741 180.229897,304.75 176.239169,304.75 L176.239169,304.75 L17.493967,304.75 C13.1447246,304.75 9.20722459,302.987121 6.35703519,300.136932 C3.5068458,297.286742 1.743967,293.349242 1.743967,289 C1.743967,288.195291 1.80563898,287.391765 1.9284412,286.59648 L1.9284412,286.59648 L25.9934052,130.748443 C26.5556056,127.107556 28.3423369,123.904834 30.9074096,121.549912 C33.4724824,119.19499 36.8158966,117.687867 40.4914628,117.438179 L40.4914628,117.438179 Z" id="1" transform="translate(106.488281, 205.236328) scale(-1, 1) translate(-106.488281, -205.236328) "></path>
            </g>
        </g>
    </g>
</svg>