<?xml version="1.0" encoding="UTF-8"?>
<svg width="276px" height="185px" viewBox="0 0 276 185" version="1.1" xmlns="http://www.w3.org/2000/svg" xmlns:xlink="http://www.w3.org/1999/xlink">
    <title>2</title>
    <defs>
        <linearGradient x1="41.253325%" y1="65.8326467%" x2="60.1650456%" y2="35.1910553%" id="linearGradient-1">
            <stop stop-color="#FFFFFF" offset="0%"></stop>
            <stop stop-color="#FFFFFF" stop-opacity="0" offset="100%"></stop>
        </linearGradient>
    </defs>
    <g id="页面-1" stroke="none" stroke-width="1" fill="none" fill-rule="evenodd" fill-opacity="0.345580201">
        <g id="我的-my-create-operate-01" transform="translate(-444.000000, -587.000000)" fill="#FFFFFF" stroke="url(#linearGradient-1)" stroke-width="1.5">
            <g id="矩形" transform="translate(177.589844, 523.000000)">
                <path d="M518.268014,65.8948996 C522.612407,65.6895669 526.628744,67.2645862 529.610316,69.9770367 C532.591888,72.6894873 534.538694,76.5393692 534.744027,80.8837619 C534.797605,82.0173442 534.728508,83.1533971 534.53794,84.2721301 L534.53794,84.2721301 L510.666803,224.408497 C510.02215,228.192953 508.060047,231.469255 505.299364,233.799443 C502.538682,236.12963 498.979421,237.513704 495.140452,237.513704 L495.140452,237.513704 L290.623932,237.513704 C286.274689,237.513704 282.337189,235.750826 279.487,232.900636 C276.636811,230.050447 274.873932,226.112947 274.873932,221.763704 C274.873932,220.61598 274.999385,219.471695 275.248056,218.351234 L275.248056,218.351234 L304.258067,87.6382196 C305.027892,84.1695466 306.911412,81.1734271 309.489753,79.0025397 C312.068094,76.8316523 315.341256,75.485997 318.890367,75.3182524 L318.890367,75.3182524 Z" id="2" transform="translate(404.429903, 151.263704) rotate(7.000000) translate(-404.429903, -151.263704) "></path>
            </g>
        </g>
    </g>
</svg>