<?xml version="1.0" encoding="UTF-8"?>
<svg width="356px" height="128px" viewBox="0 0 356 128" version="1.1" xmlns="http://www.w3.org/2000/svg" xmlns:xlink="http://www.w3.org/1999/xlink">
    <title>left</title>
    <defs>
        <linearGradient x1="94.3418517%" y1="50%" x2="-2.65466315%" y2="56.2490771%" id="linearGradient-1">
            <stop stop-color="#FFFFFF" offset="0%"></stop>
            <stop stop-color="#1CCCFF" offset="100%"></stop>
        </linearGradient>
        <linearGradient x1="65.6239776%" y1="63.7483112%" x2="14.2526011%" y2="16.6971225%" id="linearGradient-2">
            <stop stop-color="#FFFFFF" stop-opacity="0" offset="0%"></stop>
            <stop stop-color="#FFFFFF" offset="100%"></stop>
        </linearGradient>
    </defs>
    <g id="页面-1" stroke="none" stroke-width="1" fill="none" fill-rule="evenodd">
        <g id="eth跨链回avax网络" transform="translate(-253.000000, -523.000000)">
            <g id="编组-10" transform="translate(177.589844, 523.000000)">
                <g id="left" transform="translate(77.410156, 0.000000)">
                    <path d="M193,0 C256.121874,0 313.006477,26.7049294 352.972097,69.4330755 C354.000935,70.5330291 353.634466,71.8309308 353.144379,73.1544579 L352.880361,73.8565957 C352.588906,74.6394501 352.332522,75.4206398 352.372189,76.1648 C348.816039,76.9252264 345.264313,77.6731487 341.716611,78.4099241 C304.412325,38.9576622 251.580463,14.3449782 193,14.3449782 C117.996646,14.3449782 52.4169141,54.6923037 16.7812478,114.866512 C12.2381478,114.912328 7.69770962,114.933594 3.16494769,114.933594 C2.18841071,114.933594 1.21745819,114.933998 0.252090132,114.934805 C37.2901879,46.489504 109.715991,0 193,0 Z" id="形状结合" fill="url(#linearGradient-1)"></path>
                    <circle id="椭圆形" stroke="url(#linearGradient-2)" stroke-width="2" fill="#13BAEA" cx="10" cy="116" r="11"></circle>
                </g>
            </g>
        </g>
    </g>
</svg>