<?xml version="1.0" encoding="UTF-8"?>
<svg width="80px" height="90px" viewBox="0 0 80 90" version="1.1" xmlns="http://www.w3.org/2000/svg" xmlns:xlink="http://www.w3.org/1999/xlink">
    <title>P_03</title>
    <g id="页面-1" stroke="none" stroke-width="1" fill="none" fill-rule="evenodd" stroke-dasharray="3">
        <g id="选择提案的主类目-nft时" transform="translate(-901.000000, -146.000000)" fill-rule="nonzero" stroke="#141D28">
            <g id="编组-7备份-2" transform="translate(902.000000, 147.000000)">
                <g id="拼图-(1)-(1)" transform="translate(0.000000, 0.000000)">
                    <path d="M73.6446285,20.0885212 L55.6477155,20.0885212 C56.0820171,18.7093482 56.3022697,17.2848173 56.3024811,15.8536832 C56.3024811,7.11188158 48.2197191,0 38.2846432,0 C28.3493373,0 20.2664604,7.11198274 20.2664604,15.8536832 C20.2666803,17.2848168 20.4869326,18.7093467 20.921226,20.0885212 L4.35686416,20.0885212 C1.95095997,20.0885212 0,21.80453 0,23.9214432 L0,45.3627009 C0,45.4505094 0.00517374026,45.5372052 0.0118421166,45.6235974 C0.0129918367,45.6398844 0.0144864727,45.6561715 0.0159811088,45.6725597 C0.0259836733,45.7819157 0.0408150621,45.8902601 0.0610501351,45.9968847 C0.0633495752,46.0091253 0.0659939313,46.021467 0.0685233155,46.0338088 C0.0908278846,46.144581 0.117961278,46.2538358 0.1507283,46.3611686 C0.153947516,46.3716894 0.15762662,46.3821091 0.160845836,46.3927311 C0.195337438,46.5017836 0.234772836,46.6088128 0.27972689,46.7138188 C0.284785658,46.7255536 0.290304315,46.7371872 0.295363083,46.748922 C0.341351885,46.8529164 0.391709624,46.9548876 0.447356075,47.0544308 C0.455174171,47.06829 0.463452155,47.0817445 0.471270252,47.0954014 C0.527840873,47.1936597 0.58921667,47.2897184 0.655225461,47.3833081 C0.664998082,47.3972684 0.675460534,47.4112287 0.685693043,47.4250879 C0.754216358,47.5191684 0.826878666,47.6107199 0.904139854,47.6989331 L0.936446987,47.735149 C1.01784761,47.8259167 1.10385733,47.9134093 1.19421422,47.9973606 C1.19973288,48.0024187 1.20433176,48.0080838 1.20996539,48.0133442 C1.21513913,48.0180988 1.22088773,48.0220441 1.22606147,48.0267987 C1.31747047,48.1098775 1.41311026,48.1892698 1.51268668,48.2647314 C1.52567852,48.2746453 1.53855538,48.2846603 1.55166219,48.2943718 C1.64889965,48.366486 1.74975423,48.4347373 1.85392359,48.4989211 C1.86886995,48.5083292 1.88370134,48.5181419 1.89876268,48.5270441 C2.00299644,48.5896235 2.11025007,48.648217 2.2202244,48.7026611 C2.23413602,48.7095401 2.24804763,48.7170261 2.26218919,48.723804 C2.37543563,48.7783887 2.49140544,48.8284804 2.60974956,48.8739282 L2.64010217,48.8860676 C2.76209913,48.9319061 2.88639667,48.9728513 3.01261147,49.0087769 L3.03250163,49.0147455 C3.15816603,49.0499498 3.28647479,49.0799949 3.41673807,49.1051842 L3.4404223,49.1099388 C3.56516693,49.1336107 3.69198105,49.1517187 3.82028981,49.165679 C3.83408645,49.1671964 3.84776812,49.1689162 3.86167973,49.1702313 C3.98263028,49.1823707 4.1049605,49.1896544 4.2285554,49.1926892 C4.24925036,49.193195 4.26994532,49.1939032 4.29064028,49.1941055 C4.31271491,49.194409 4.33444462,49.1957241 4.35663422,49.1957241 C4.45551014,49.1957241 4.55369623,49.1916776 4.65107752,49.1860125 C4.67096768,49.1846974 4.69085784,49.1834835 4.71086297,49.1819661 C4.8330353,49.1734243 4.95474502,49.1603629 5.07566914,49.1428164 C5.09096042,49.1405909 5.10602175,49.1379606 5.12131303,49.1357351 C5.24532585,49.1164304 5.36834337,49.0924669 5.49002825,49.0639102 C5.50325003,49.0608753 5.51589695,49.0573346 5.52888879,49.0541986 C5.65202381,49.0238501 5.77285938,48.989455 5.89128055,48.9504065 C5.90507719,48.9458543 5.91887383,48.9405938 5.93290042,48.9358392 C6.05074672,48.8954757 6.16629359,48.8513691 6.27873621,48.8025079 C6.29471732,48.79573 6.31035351,48.7881429 6.32610468,48.7812639 C6.43763853,48.7314821 6.54669393,48.6775132 6.65297009,48.6195061 C6.66883622,48.6108062 6.68447242,48.6017016 6.70010861,48.5927993 C6.93304542,48.4619377 7.15122121,48.3117703 7.35165497,48.1443488 C7.35740357,48.1396953 7.36326714,48.1358512 7.36890077,48.1311977 C9.11026677,46.6642495 11.3945306,45.8563708 13.8004348,45.8563708 C18.9316354,45.8563708 23.106039,49.5293559 23.106039,54.0440077 C23.106039,58.5588618 18.9316354,62.2319481 13.8004348,62.2319481 C11.3946456,62.2319481 9.11026677,61.4239682 7.36890077,59.95702 C7.36257731,59.9516584 7.35567899,59.9474096 7.34935553,59.942048 C7.24143343,59.8522527 7.12846596,59.7672713 7.01087794,59.6874236 C6.9108523,59.6196452 6.80749246,59.5560144 6.70114336,59.4960254 C6.68470236,59.4868196 6.66872125,59.4774116 6.65216528,59.4684082 C6.54609236,59.4105432 6.43726871,59.3566763 6.3259897,59.3069538 C6.31012357,59.3000748 6.29471732,59.2924877 6.27862124,59.2857099 C6.16533876,59.2367187 6.04968202,59.1920976 5.93198064,59.1519739 C5.91841394,59.1474216 5.90519216,59.142667 5.89174044,59.1382158 C5.77210026,59.09858 5.65048966,59.0637112 5.52727918,59.0337156 L5.491063,59.0246111 C5.36816524,58.9956552 5.24387445,58.9714877 5.1185537,58.9521792 L5.07716378,58.9457048 C4.93668444,58.9251057 4.79513488,58.9106219 4.65303205,58.9023064 C4.55427023,58.8961185 4.45530039,58.8928458 4.3562893,58.8924937 C4.33340987,58.8924937 4.31087536,58.8936065 4.28799593,58.8940111 C4.2687956,58.8941123 4.24982522,58.8948204 4.23085484,58.8953262 C4.10675821,58.8982895 3.98286031,58.9058835 3.85949526,58.9180876 C3.84719326,58.9193016 3.83489125,58.9207178 3.82270422,58.9221341 C3.69278585,58.9360944 3.56436212,58.9548094 3.43835281,58.9785824 C3.43191437,58.979594 3.42570589,58.9811115 3.41938242,58.9823254 C3.28773948,59.0076159 3.15805106,59.0379644 3.03112196,59.0737757 C3.02537336,59.0752932 3.01962476,59.0771141 3.0141061,59.0788338 C2.88625723,59.1151509 2.76116769,59.1562227 2.63872251,59.2022513 C2.62952474,59.2058931 2.62021201,59.2099396 2.61101425,59.2134803 C2.49167331,59.2594078 2.37486175,59.3095841 2.26149935,59.3643126 C2.24770271,59.3710905 2.23413602,59.3784753 2.22010943,59.3853543 C2.11010562,59.4397184 2.00284974,59.4982794 1.8986477,59.5608701 C1.88324146,59.5700759 1.86829509,59.5800909 1.85300382,59.5894989 C1.749274,59.6534438 1.64880549,59.7213897 1.55189213,59.7931378 C1.53832544,59.803254 1.52498869,59.8134713 1.51165193,59.8237898 C1.41270815,59.8989062 1.31764564,59.9778919 1.2267513,60.0605086 C1.22123265,60.0655667 1.21502416,60.0696132 1.2095055,60.0747724 C1.20352696,60.0802352 1.19869813,60.0863049 1.19283456,60.0917676 C1.10310748,60.1752534 1.01763744,60.2622033 0.936676931,60.3523606 C0.925524647,60.3647023 0.91425739,60.3770441 0.903220078,60.3896893 C0.826307016,60.4777486 0.75373103,60.5686758 0.685693043,60.6622194 C0.675345562,60.6767867 0.664423222,60.6908482 0.654190713,60.7055167 C0.58865667,60.7983832 0.527721507,60.8941835 0.471040308,60.9923105 C0.462992267,61.0062709 0.454599311,61.0200289 0.446666243,61.0340904 C0.391019792,61.133229 0.340891997,61.235099 0.294903195,61.3388911 C0.289614483,61.350727 0.283980854,61.362563 0.279037058,61.3745001 C0.234100599,61.4797931 0.194511077,61.5867933 0.160385948,61.6951832 L0.150038468,61.7270492 C0.117180019,61.8350185 0.0897516854,61.9442109 0.0678334834,62.0543078 C0.0654190713,62.0667507 0.0626597432,62.0790925 0.060245331,62.0914342 C0.0400914498,62.1989053 0.025093461,62.3070758 0.0152912768,62.415658 C0.0054994306,62.5187235 0,62.6220924 0,62.7255168 L0,84.1669769 C0,86.2838901 1.95027013,88 4.35617433,88 L73.6438237,88 C76.0497279,88 78,86.2838901 78,84.1669769 L78,23.9214432 C78.0008028,21.80453 76.0505327,20.0884201 73.6446285,20.0884201 L73.6446285,20.0885212 Z" id="P_03"></path>
                </g>
            </g>
        </g>
    </g>
</svg>