<?xml version="1.0" encoding="UTF-8"?>
<svg width="90px" height="90px" viewBox="0 0 90 90" version="1.1" xmlns="http://www.w3.org/2000/svg" xmlns:xlink="http://www.w3.org/1999/xlink">
    <title>形状</title>
    <g id="页面-1" stroke="none" stroke-width="1" fill="none" fill-rule="evenodd" stroke-dasharray="3">
        <g id="Token提案主页面1" transform="translate(-675.000000, -146.000000)" fill-rule="nonzero" stroke="#002E53">
            <g id="拼图-(4)" transform="translate(676.000000, 147.000000)">
                <path d="M0,45.6912626 L0,21.3898774 C0,18.1238126 2.63833858,15.4736936 5.88988485,15.4736936 L21.14278,15.4736936 L21.14278,15.1734847 C21.14278,6.7934005 27.905982,0 36.2488145,0 C44.591647,0 51.354849,6.7934005 51.354849,15.1734847 L51.354849,15.4685175 L66.6077442,15.4685175 C69.8592904,15.4685175 72.497629,18.1186366 72.497629,21.3847014 L72.497629,36.6228863 L72.5594651,36.6228863 C78.0271925,36.4791129 83.1419655,39.3269725 85.9179852,44.0607902 C88.6940049,48.794608 88.6940049,54.6687336 85.9179852,59.4025513 C83.1419655,64.1363691 78.0271925,66.9842287 72.5594651,66.8404553 L72.497629,66.8404553 L72.497629,82.0786402 C72.497629,85.344705 69.8592904,87.9948241 66.6077442,87.9948241 L42.28556,87.9948241 L42.28556,78.0672294 C42.2855598,74.716911 39.5816633,72.0009414 36.246238,72.0009414 C32.9108127,72.0009414 30.2069162,74.716911 30.206916,78.0672294 L30.206916,88 L5.88473181,88 C2.6338508,87.9971431 0,85.349214 0,82.0838161 L0,57.782431 L9.08474799,57.782431 C12.4084568,57.781958 15.1026054,55.0753963 15.1026054,51.7368468 C15.1026054,48.3982972 12.4084568,45.6917355 9.08474799,45.6912626 L0,45.6912626 Z" id="形状"></path>
            </g>
        </g>
    </g>
</svg>