<?xml version="1.0" encoding="UTF-8"?>
<svg width="84px" height="93px" viewBox="0 0 84 93" version="1.1" xmlns="http://www.w3.org/2000/svg" xmlns:xlink="http://www.w3.org/1999/xlink">
    <title>拼图 (1) (1)</title>
    <g id="页面-1" stroke="none" stroke-width="1" fill="none" fill-rule="evenodd">
        <g id="token提案主页3" transform="translate(-901.000000, -146.000000)" fill-rule="nonzero">
            <g id="拼图-(1)-(1)" transform="translate(902.000000, 147.000000)">
                <path d="M78.6446285,24.0885212 L60.6477155,24.0885212 C61.0820171,22.7093482 61.3022697,21.2848173 61.3024811,19.8536832 C61.3024811,11.1118816 53.2197191,4 43.2846432,4 C33.3493373,4 25.2664604,11.1119827 25.2664604,19.8536832 C25.2666803,21.2848168 25.4869326,22.7093467 25.921226,24.0885212 L9.35686416,24.0885212 C6.95095997,24.0885212 5,25.80453 5,27.9214432 L5,49.3627009 C5,49.4505094 5.00517374,49.5372052 5.01184212,49.6235974 C5.01299184,49.6398844 5.01448647,49.6561715 5.01598111,49.6725597 C5.02598367,49.7819157 5.04081506,49.8902601 5.06105014,49.9968847 C5.06334958,50.0091253 5.06599393,50.021467 5.06852332,50.0338088 C5.09082788,50.144581 5.11796128,50.2538358 5.1507283,50.3611686 C5.15394752,50.3716894 5.15762662,50.3821091 5.16084584,50.3927311 C5.19533744,50.5017836 5.23477284,50.6088128 5.27972689,50.7138188 C5.28478566,50.7255536 5.29030431,50.7371872 5.29536308,50.748922 C5.34135189,50.8529164 5.39170962,50.9548876 5.44735607,51.0544308 C5.45517417,51.06829 5.46345216,51.0817445 5.47127025,51.0954014 C5.52784087,51.1936597 5.58921667,51.2897184 5.65522546,51.3833081 C5.66499808,51.3972684 5.67546053,51.4112287 5.68569304,51.4250879 C5.75421636,51.5191684 5.82687867,51.6107199 5.90413985,51.6989331 L5.93644699,51.735149 C6.01784761,51.8259167 6.10385733,51.9134093 6.19421422,51.9973606 C6.19973288,52.0024187 6.20433176,52.0080838 6.20996539,52.0133442 C6.21513913,52.0180988 6.22088773,52.0220441 6.22606147,52.0267987 C6.31747047,52.1098775 6.41311026,52.1892698 6.51268668,52.2647314 C6.52567852,52.2746453 6.53855538,52.2846603 6.55166219,52.2943718 C6.64889965,52.366486 6.74975423,52.4347373 6.85392359,52.4989211 C6.86886995,52.5083292 6.88370134,52.5181419 6.89876268,52.5270441 C7.00299644,52.5896235 7.11025007,52.648217 7.2202244,52.7026611 C7.23413602,52.7095401 7.24804763,52.7170261 7.26218919,52.723804 C7.37543563,52.7783887 7.49140544,52.8284804 7.60974956,52.8739282 L7.64010217,52.8860676 C7.76209913,52.9319061 7.88639667,52.9728513 8.01261147,53.0087769 L8.03250163,53.0147455 C8.15816603,53.0499498 8.28647479,53.0799949 8.41673807,53.1051842 L8.4404223,53.1099388 C8.56516693,53.1336107 8.69198105,53.1517187 8.82028981,53.165679 C8.83408645,53.1671964 8.84776812,53.1689162 8.86167973,53.1702313 C8.98263028,53.1823707 9.1049605,53.1896544 9.2285554,53.1926892 C9.24925036,53.193195 9.26994532,53.1939032 9.29064028,53.1941055 C9.31271491,53.194409 9.33444462,53.1957241 9.35663422,53.1957241 C9.45551014,53.1957241 9.55369623,53.1916776 9.65107752,53.1860125 C9.67096768,53.1846974 9.69085784,53.1834835 9.71086297,53.1819661 C9.8330353,53.1734243 9.95474502,53.1603629 10.0756691,53.1428164 C10.0909604,53.1405909 10.1060217,53.1379606 10.121313,53.1357351 C10.2453258,53.1164304 10.3683434,53.0924669 10.4900282,53.0639102 C10.50325,53.0608753 10.515897,53.0573346 10.5288888,53.0541986 C10.6520238,53.0238501 10.7728594,52.989455 10.8912805,52.9504065 C10.9050772,52.9458543 10.9188738,52.9405938 10.9329004,52.9358392 C11.0507467,52.8954757 11.1662936,52.8513691 11.2787362,52.8025079 C11.2947173,52.79573 11.3103535,52.7881429 11.3261047,52.7812639 C11.4376385,52.7314821 11.5466939,52.6775132 11.6529701,52.6195061 C11.6688362,52.6108062 11.6844724,52.6017016 11.7001086,52.5927993 C11.9330454,52.4619377 12.1512212,52.3117703 12.351655,52.1443488 C12.3574036,52.1396953 12.3632671,52.1358512 12.3689008,52.1311977 C14.1102668,50.6642495 16.3945306,49.8563708 18.8004348,49.8563708 C23.9316354,49.8563708 28.106039,53.5293559 28.106039,58.0440077 C28.106039,62.5588618 23.9316354,66.2319481 18.8004348,66.2319481 C16.3946456,66.2319481 14.1102668,65.4239682 12.3689008,63.95702 C12.3625773,63.9516584 12.355679,63.9474096 12.3493555,63.942048 C12.2414334,63.8522527 12.128466,63.7672713 12.0108779,63.6874236 C11.9108523,63.6196452 11.8074925,63.5560144 11.7011434,63.4960254 C11.6847024,63.4868196 11.6687213,63.4774116 11.6521653,63.4684082 C11.5460924,63.4105432 11.4372687,63.3566763 11.3259897,63.3069538 C11.3101236,63.3000748 11.2947173,63.2924877 11.2786212,63.2857099 C11.1653388,63.2367187 11.049682,63.1920976 10.9319806,63.1519739 C10.9184139,63.1474216 10.9051922,63.142667 10.8917404,63.1382158 C10.7721003,63.09858 10.6504897,63.0637112 10.5272792,63.0337156 L10.491063,63.0246111 C10.3681652,62.9956552 10.2438745,62.9714877 10.1185537,62.9521792 L10.0771638,62.9457048 C9.93668444,62.9251057 9.79513488,62.9106219 9.65303205,62.9023064 C9.55427023,62.8961185 9.45530039,62.8928458 9.3562893,62.8924937 C9.33340987,62.8924937 9.31087536,62.8936065 9.28799593,62.8940111 C9.2687956,62.8941123 9.24982522,62.8948204 9.23085484,62.8953262 C9.10675821,62.8982895 8.98286031,62.9058835 8.85949526,62.9180876 C8.84719326,62.9193016 8.83489125,62.9207178 8.82270422,62.9221341 C8.69278585,62.9360944 8.56436212,62.9548094 8.43835281,62.9785824 C8.43191437,62.979594 8.42570589,62.9811115 8.41938242,62.9823254 C8.28773948,63.0076159 8.15805106,63.0379644 8.03112196,63.0737757 C8.02537336,63.0752932 8.01962476,63.0771141 8.0141061,63.0788338 C7.88625723,63.1151509 7.76116769,63.1562227 7.63872251,63.2022513 C7.62952474,63.2058931 7.62021201,63.2099396 7.61101425,63.2134803 C7.49167331,63.2594078 7.37486175,63.3095841 7.26149935,63.3643126 C7.24770271,63.3710905 7.23413602,63.3784753 7.22010943,63.3853543 C7.11010562,63.4397184 7.00284974,63.4982794 6.8986477,63.5608701 C6.88324146,63.5700759 6.86829509,63.5800909 6.85300382,63.5894989 C6.749274,63.6534438 6.64880549,63.7213897 6.55189213,63.7931378 C6.53832544,63.803254 6.52498869,63.8134713 6.51165193,63.8237898 C6.41270815,63.8989062 6.31764564,63.9778919 6.2267513,64.0605086 C6.22123265,64.0655667 6.21502416,64.0696132 6.2095055,64.0747724 C6.20352696,64.0802352 6.19869813,64.0863049 6.19283456,64.0917676 C6.10310748,64.1752534 6.01763744,64.2622033 5.93667693,64.3523606 C5.92552465,64.3647023 5.91425739,64.3770441 5.90322008,64.3896893 C5.82630702,64.4777486 5.75373103,64.5686758 5.68569304,64.6622194 C5.67534556,64.6767867 5.66442322,64.6908482 5.65419071,64.7055167 C5.58865667,64.7983832 5.52772151,64.8941835 5.47104031,64.9923105 C5.46299227,65.0062709 5.45459931,65.0200289 5.44666624,65.0340904 C5.39101979,65.133229 5.340892,65.235099 5.29490319,65.3388911 C5.28961448,65.350727 5.28398085,65.362563 5.27903706,65.3745001 C5.2341006,65.4797931 5.19451108,65.5867933 5.16038595,65.6951832 L5.15003847,65.7270492 C5.11718002,65.8350185 5.08975169,65.9442109 5.06783348,66.0543078 C5.06541907,66.0667507 5.06265974,66.0790925 5.06024533,66.0914342 C5.04009145,66.1989053 5.02509346,66.3070758 5.01529128,66.415658 C5.00549943,66.5187235 5,66.6220924 5,66.7255168 L5,88.1669769 C5,90.2838901 6.95027013,92 9.35617433,92 L78.6438237,92 C81.0497279,92 83,90.2838901 83,88.1669769 L83,27.9214432 C83.0008028,25.80453 81.0505327,24.0884201 78.6446285,24.0884201 L78.6446285,24.0885212 Z" id="路径" fill="#141D28"></path>
                <path d="M73.6446285,20.0885212 L55.6477155,20.0885212 C56.0820171,18.7093482 56.3022697,17.2848173 56.3024811,15.8536832 C56.3024811,7.11188158 48.2197191,0 38.2846432,0 C28.3493373,0 20.2664604,7.11198274 20.2664604,15.8536832 C20.2666803,17.2848168 20.4869326,18.7093467 20.921226,20.0885212 L4.35686416,20.0885212 C1.95095997,20.0885212 0,21.80453 0,23.9214432 L0,45.3627009 C0,45.4505094 0.00517374026,45.5372052 0.0118421166,45.6235974 C0.0129918367,45.6398844 0.0144864727,45.6561715 0.0159811088,45.6725597 C0.0259836733,45.7819157 0.0408150621,45.8902601 0.0610501351,45.9968847 C0.0633495752,46.0091253 0.0659939313,46.021467 0.0685233155,46.0338088 C0.0908278846,46.144581 0.117961278,46.2538358 0.1507283,46.3611686 C0.153947516,46.3716894 0.15762662,46.3821091 0.160845836,46.3927311 C0.195337438,46.5017836 0.234772836,46.6088128 0.27972689,46.7138188 C0.284785658,46.7255536 0.290304315,46.7371872 0.295363083,46.748922 C0.341351885,46.8529164 0.391709624,46.9548876 0.447356075,47.0544308 C0.455174171,47.06829 0.463452155,47.0817445 0.471270252,47.0954014 C0.527840873,47.1936597 0.58921667,47.2897184 0.655225461,47.3833081 C0.664998082,47.3972684 0.675460534,47.4112287 0.685693043,47.4250879 C0.754216358,47.5191684 0.826878666,47.6107199 0.904139854,47.6989331 L0.936446987,47.735149 C1.01784761,47.8259167 1.10385733,47.9134093 1.19421422,47.9973606 C1.19973288,48.0024187 1.20433176,48.0080838 1.20996539,48.0133442 C1.21513913,48.0180988 1.22088773,48.0220441 1.22606147,48.0267987 C1.31747047,48.1098775 1.41311026,48.1892698 1.51268668,48.2647314 C1.52567852,48.2746453 1.53855538,48.2846603 1.55166219,48.2943718 C1.64889965,48.366486 1.74975423,48.4347373 1.85392359,48.4989211 C1.86886995,48.5083292 1.88370134,48.5181419 1.89876268,48.5270441 C2.00299644,48.5896235 2.11025007,48.648217 2.2202244,48.7026611 C2.23413602,48.7095401 2.24804763,48.7170261 2.26218919,48.723804 C2.37543563,48.7783887 2.49140544,48.8284804 2.60974956,48.8739282 L2.64010217,48.8860676 C2.76209913,48.9319061 2.88639667,48.9728513 3.01261147,49.0087769 L3.03250163,49.0147455 C3.15816603,49.0499498 3.28647479,49.0799949 3.41673807,49.1051842 L3.4404223,49.1099388 C3.56516693,49.1336107 3.69198105,49.1517187 3.82028981,49.165679 C3.83408645,49.1671964 3.84776812,49.1689162 3.86167973,49.1702313 C3.98263028,49.1823707 4.1049605,49.1896544 4.2285554,49.1926892 C4.24925036,49.193195 4.26994532,49.1939032 4.29064028,49.1941055 C4.31271491,49.194409 4.33444462,49.1957241 4.35663422,49.1957241 C4.45551014,49.1957241 4.55369623,49.1916776 4.65107752,49.1860125 C4.67096768,49.1846974 4.69085784,49.1834835 4.71086297,49.1819661 C4.8330353,49.1734243 4.95474502,49.1603629 5.07566914,49.1428164 C5.09096042,49.1405909 5.10602175,49.1379606 5.12131303,49.1357351 C5.24532585,49.1164304 5.36834337,49.0924669 5.49002825,49.0639102 C5.50325003,49.0608753 5.51589695,49.0573346 5.52888879,49.0541986 C5.65202381,49.0238501 5.77285938,48.989455 5.89128055,48.9504065 C5.90507719,48.9458543 5.91887383,48.9405938 5.93290042,48.9358392 C6.05074672,48.8954757 6.16629359,48.8513691 6.27873621,48.8025079 C6.29471732,48.79573 6.31035351,48.7881429 6.32610468,48.7812639 C6.43763853,48.7314821 6.54669393,48.6775132 6.65297009,48.6195061 C6.66883622,48.6108062 6.68447242,48.6017016 6.70010861,48.5927993 C6.93304542,48.4619377 7.15122121,48.3117703 7.35165497,48.1443488 C7.35740357,48.1396953 7.36326714,48.1358512 7.36890077,48.1311977 C9.11026677,46.6642495 11.3945306,45.8563708 13.8004348,45.8563708 C18.9316354,45.8563708 23.106039,49.5293559 23.106039,54.0440077 C23.106039,58.5588618 18.9316354,62.2319481 13.8004348,62.2319481 C11.3946456,62.2319481 9.11026677,61.4239682 7.36890077,59.95702 C7.36257731,59.9516584 7.35567899,59.9474096 7.34935553,59.942048 C7.24143343,59.8522527 7.12846596,59.7672713 7.01087794,59.6874236 C6.9108523,59.6196452 6.80749246,59.5560144 6.70114336,59.4960254 C6.68470236,59.4868196 6.66872125,59.4774116 6.65216528,59.4684082 C6.54609236,59.4105432 6.43726871,59.3566763 6.3259897,59.3069538 C6.31012357,59.3000748 6.29471732,59.2924877 6.27862124,59.2857099 C6.16533876,59.2367187 6.04968202,59.1920976 5.93198064,59.1519739 C5.91841394,59.1474216 5.90519216,59.142667 5.89174044,59.1382158 C5.77210026,59.09858 5.65048966,59.0637112 5.52727918,59.0337156 L5.491063,59.0246111 C5.36816524,58.9956552 5.24387445,58.9714877 5.1185537,58.9521792 L5.07716378,58.9457048 C4.93668444,58.9251057 4.79513488,58.9106219 4.65303205,58.9023064 C4.55427023,58.8961185 4.45530039,58.8928458 4.3562893,58.8924937 C4.33340987,58.8924937 4.31087536,58.8936065 4.28799593,58.8940111 C4.2687956,58.8941123 4.24982522,58.8948204 4.23085484,58.8953262 C4.10675821,58.8982895 3.98286031,58.9058835 3.85949526,58.9180876 C3.84719326,58.9193016 3.83489125,58.9207178 3.82270422,58.9221341 C3.69278585,58.9360944 3.56436212,58.9548094 3.43835281,58.9785824 C3.43191437,58.979594 3.42570589,58.9811115 3.41938242,58.9823254 C3.28773948,59.0076159 3.15805106,59.0379644 3.03112196,59.0737757 C3.02537336,59.0752932 3.01962476,59.0771141 3.0141061,59.0788338 C2.88625723,59.1151509 2.76116769,59.1562227 2.63872251,59.2022513 C2.62952474,59.2058931 2.62021201,59.2099396 2.61101425,59.2134803 C2.49167331,59.2594078 2.37486175,59.3095841 2.26149935,59.3643126 C2.24770271,59.3710905 2.23413602,59.3784753 2.22010943,59.3853543 C2.11010562,59.4397184 2.00284974,59.4982794 1.8986477,59.5608701 C1.88324146,59.5700759 1.86829509,59.5800909 1.85300382,59.5894989 C1.749274,59.6534438 1.64880549,59.7213897 1.55189213,59.7931378 C1.53832544,59.803254 1.52498869,59.8134713 1.51165193,59.8237898 C1.41270815,59.8989062 1.31764564,59.9778919 1.2267513,60.0605086 C1.22123265,60.0655667 1.21502416,60.0696132 1.2095055,60.0747724 C1.20352696,60.0802352 1.19869813,60.0863049 1.19283456,60.0917676 C1.10310748,60.1752534 1.01763744,60.2622033 0.936676931,60.3523606 C0.925524647,60.3647023 0.91425739,60.3770441 0.903220078,60.3896893 C0.826307016,60.4777486 0.75373103,60.5686758 0.685693043,60.6622194 C0.675345562,60.6767867 0.664423222,60.6908482 0.654190713,60.7055167 C0.58865667,60.7983832 0.527721507,60.8941835 0.471040308,60.9923105 C0.462992267,61.0062709 0.454599311,61.0200289 0.446666243,61.0340904 C0.391019792,61.133229 0.340891997,61.235099 0.294903195,61.3388911 C0.289614483,61.350727 0.283980854,61.362563 0.279037058,61.3745001 C0.234100599,61.4797931 0.194511077,61.5867933 0.160385948,61.6951832 L0.150038468,61.7270492 C0.117180019,61.8350185 0.0897516854,61.9442109 0.0678334834,62.0543078 C0.0654190713,62.0667507 0.0626597432,62.0790925 0.060245331,62.0914342 C0.0400914498,62.1989053 0.025093461,62.3070758 0.0152912768,62.415658 C0.0054994306,62.5187235 0,62.6220924 0,62.7255168 L0,84.1669769 C0,86.2838901 1.95027013,88 4.35617433,88 L73.6438237,88 C76.0497279,88 78,86.2838901 78,84.1669769 L78,23.9214432 C78.0008028,21.80453 76.0505327,20.0884201 73.6446285,20.0884201 L73.6446285,20.0885212 Z" id="形状" stroke="#000000" stroke-width="1.5" fill="#FFE502"></path>
            </g>
        </g>
    </g>
</svg>