<?xml version="1.0" encoding="utf-8"?>
<!-- Generator: Adobe Illustrator 23.0.3, SVG Export Plug-In . SVG Version: 6.00 Build 0)  -->
<svg version="1.1" id="图层_1" xmlns="http://www.w3.org/2000/svg" xmlns:xlink="http://www.w3.org/1999/xlink" x="0px" y="0px"
	 viewBox="0 0 105.51 84.15" style="enable-background:new 0 0 105.51 84.15;" xml:space="preserve">
<style type="text/css">
	.st0{stroke:#000000;stroke-width:1.5;}
	.st1{fill:#FFE502;stroke:#000000;stroke-width:1.5;}
</style>
<title>P_01</title>
<g id="页面-1">
	<g id="选择提案的主类目-nft时" transform="translate(-414.000000, -114.000000)">
		<g id="编组-7" transform="translate(415.253788, 115.508362)">
			
				<g id="P_01" transform="translate(77.429585, 77.429585) rotate(45.000000) translate(-77.429585, -77.429585) translate(21.747605, 23.609596)">
				<path id="路径" class="st0" d="M49.41,11.4c5.99,6.01,5.99,15.74,0,21.75c-0.23,0.23-0.49,0.41-0.74,0.61l-0.61,0.46
					l-3.83,3.07l3.47,3.47l9.48,9.48c0.82,0.82,1.29,1.94,1.29,3.11c0,1.16-0.46,2.28-1.29,3.11l-46.61,46.61
					c-0.82,0.82-1.94,1.29-3.11,1.29c-1.17,0-2.28-0.46-3.11-1.29l-46.6-46.61c-0.82-0.82-1.29-1.94-1.29-3.11
					c0-1.17,0.46-2.28,1.29-3.11l14.72-14.72c3.52,4.39,4.69,8.69,10.3,9s8.69-1.56,11.47-4.39c2.95-2.92,4.63-5.31,4.31-10.93
					c-0.31-5.61-4.58-7.28-8.97-10.8L4.36,3.63c1.72-1.71,4.5-1.71,6.21,0l9.48,9.47l3.47,3.48l3.06-3.83l0.46-0.59
					c0.19-0.26,0.38-0.53,0.61-0.75C33.67,5.4,43.4,5.4,49.41,11.4z"/>
				<path class="st1" d="M41.63,12.1c5.99,6.01,5.99,15.74,0,21.75c-0.23,0.23-0.49,0.41-0.74,0.61l-0.61,0.46L36.45,38l3.47,3.47
					l9.48,9.48c0.82,0.82,1.29,1.94,1.29,3.11c0,1.16-0.46,2.28-1.29,3.11L2.79,103.76c-0.82,0.82-1.94,1.29-3.11,1.29
					c-1.17,0-2.28-0.46-3.11-1.29l-46.6-46.61c-0.82-0.82-1.29-1.94-1.29-3.11s0.46-2.28,1.29-3.11l14.72-14.72
					c3.52,4.39,4.69,8.69,10.3,9s8.69-1.56,11.47-4.39c2.95-2.92,4.63-5.31,4.31-10.93s-4.58-7.28-8.97-10.8L-3.42,4.33
					c1.72-1.71,4.5-1.71,6.21,0l9.48,9.47l3.47,3.48l3.06-3.83l0.46-0.59c0.19-0.26,0.38-0.53,0.61-0.75
					C25.89,6.11,35.62,6.11,41.63,12.1z"/>
			</g>
		</g>
	</g>
</g>
</svg>
