<?xml version="1.0" encoding="UTF-8"?>
<svg width="156px" height="156px" viewBox="0 0 156 156" version="1.1" xmlns="http://www.w3.org/2000/svg" xmlns:xlink="http://www.w3.org/1999/xlink">
    <title>pic_puzzle02</title>
    <g id="页面-1" stroke="none" stroke-width="1" fill="none" fill-rule="evenodd">
        <g id="（募集成功）提案详情页面" transform="translate(-566.000000, -1752.000000)" fill-rule="nonzero" stroke="#000000" stroke-width="1.5">
            <g id="编组-7" transform="translate(567.000000, 1753.000000)">
                <g id="pic_puzzle02" transform="translate(77.429585, 77.429585) rotate(45.000000) translate(-77.429585, -77.429585) translate(21.747605, 23.609596)">
                    <path d="M100.721981,11.6945036 C106.71315,17.7053993 106.71315,27.4301947 100.721981,33.4410904 C100.491769,33.6713068 100.234994,33.8528234 99.9826458,34.0476219 L99.3716981,34.5124817 L95.5422071,37.584984 L99.0086712,41.0515103 L108.491642,50.5302241 C109.315389,51.353868 109.778175,52.4710393 109.778175,53.6359307 C109.778175,54.8008221 109.315389,55.9179935 108.491642,56.7416373 L61.8825306,103.351585 C61.0594788,104.176434 59.9421112,104.639979 58.7768797,104.639979 C57.6116483,104.639979 56.4942807,104.176434 55.6712289,103.351585 L9.06654459,56.7416373 C8.24171122,55.9185707 7.77817459,54.8011831 7.77817459,53.6359307 C7.77817459,52.4706784 8.24171122,51.3532907 9.06654459,50.5302241 L23.7847713,35.8118285 C27.3009174,40.1988403 28.4698999,44.4971274 34.0833011,44.8104902 C39.6967023,45.123853 42.7715684,43.2508951 45.5570863,40.4188904 C48.5024686,37.5009776 50.1849472,35.1075322 49.8715385,29.4931072 C49.5581298,23.8786822 45.2903848,22.2097227 40.9009772,18.6951238 L55.6712289,3.92470317 C57.3873714,2.21173708 60.1663881,2.21173708 61.8825306,3.92470317 L71.3655014,13.3989898 L74.8363927,16.8743706 L77.8999854,13.0403836 L78.3604098,12.4471339 C78.5552047,12.1903542 78.7367182,11.9202927 78.9713575,11.6945036 C84.9806426,5.69541331 94.712696,5.69541331 100.721981,11.6945036 Z" id="路径" fill="#000000"></path>
                    <path d="M92.9438065,12.4016103 C98.9349757,18.4125061 98.9349757,28.1373015 92.9438065,34.1481972 C92.7135943,34.3784135 92.4568192,34.5599302 92.2044712,34.7547286 L91.5935235,35.2195885 L87.7640325,38.2920908 L91.2304966,41.7586171 L100.713467,51.2373309 C101.537214,52.0609747 102,53.1781461 102,54.3430375 C102,55.5079289 101.537214,56.6251003 100.713467,57.4487441 L54.104356,104.058692 C53.2813042,104.88354 52.1639366,105.347085 50.9987051,105.347085 C49.8334737,105.347085 48.7161061,104.88354 47.8930543,104.058692 L1.28837,57.4487441 C0.463536627,56.6256775 -5.35021425e-13,55.5082899 -5.35021425e-13,54.3430375 C-5.35021425e-13,53.1777851 0.463536627,52.0603975 1.28837,51.2373309 L16.0065967,36.5189352 C19.5227428,40.9059471 20.6917253,45.2042342 26.3051265,45.517597 C31.9185277,45.8309598 34.9933938,43.9580019 37.7789118,41.1259971 C40.724294,38.2080844 42.4067726,35.814639 42.0933639,30.200214 C41.7799552,24.585789 37.5122102,22.9168295 33.1228027,19.4022306 L47.8930543,4.63180995 C49.6091968,2.91884386 52.3882135,2.91884386 54.104356,4.63180995 L63.5873268,14.1060965 L67.0582181,17.5814774 L70.1218108,13.7474904 L70.5822352,13.1542407 C70.7770301,12.897461 70.9585436,12.6273995 71.1931829,12.4016103 C77.202468,6.40252009 86.9345214,6.40252009 92.9438065,12.4016103 Z" id="路径" fill="#FFE502"></path>
                </g>
            </g>
        </g>
    </g>
</svg>