<?xml version="1.0" encoding="UTF-8"?>
<svg width="95px" height="94px" viewBox="0 0 95 94" version="1.1" xmlns="http://www.w3.org/2000/svg" xmlns:xlink="http://www.w3.org/1999/xlink">
    <title>pic_puzzle01</title>
    <g id="页面-1" stroke="none" stroke-width="1" fill="none" fill-rule="evenodd">
        <g id="（募集成功）提案详情页面" transform="translate(-775.000000, -1495.000000)" fill-rule="nonzero">
            <g id="pic_puzzle01" transform="translate(776.000000, 1496.000000)">
                <path d="M6,50.6912626 L6,26.3898774 C6,23.1238126 8.63833858,20.4736936 11.8898849,20.4736936 L27.14278,20.4736936 L27.14278,20.1734847 C27.14278,11.7934005 33.905982,5 42.2488145,5 C50.591647,5 57.354849,11.7934005 57.354849,20.1734847 L57.354849,20.4685175 L72.6077442,20.4685175 C75.8592904,20.4685175 78.497629,23.1186366 78.497629,26.3847014 L78.497629,41.6228863 L78.5594651,41.6228863 C84.0271925,41.4791129 89.1419655,44.3269725 91.9179852,49.0607902 C94.6940049,53.794608 94.6940049,59.6687336 91.9179852,64.4025513 C89.1419655,69.1363691 84.0271925,71.9842287 78.5594651,71.8404553 L78.497629,71.8404553 L78.497629,87.0786402 C78.497629,90.344705 75.8592904,92.9948241 72.6077442,92.9948241 L48.28556,92.9948241 L48.28556,83.0672294 C48.2855598,79.716911 45.5816633,77.0009414 42.246238,77.0009414 C38.9108127,77.0009414 36.2069162,79.716911 36.206916,83.0672294 L36.206916,93 L11.8847318,93 C8.6338508,92.9971431 6,90.349214 6,87.0838161 L6,62.782431 L15.084748,62.782431 C18.4084568,62.781958 21.1026054,60.0753963 21.1026054,56.7368468 C21.1026054,53.3982972 18.4084568,50.6917355 15.084748,50.6912626 L6,50.6912626 Z" id="形状" fill="#141D28"></path>
                <path d="M0,45.6912626 L0,21.3898774 C0,18.1238126 2.63833858,15.4736936 5.88988485,15.4736936 L21.14278,15.4736936 L21.14278,15.1734847 C21.14278,6.7934005 27.905982,0 36.2488145,0 C44.591647,0 51.354849,6.7934005 51.354849,15.1734847 L51.354849,15.4685175 L66.6077442,15.4685175 C69.8592904,15.4685175 72.497629,18.1186366 72.497629,21.3847014 L72.497629,36.6228863 L72.5594651,36.6228863 C78.0271925,36.4791129 83.1419655,39.3269725 85.9179852,44.0607902 C88.6940049,48.794608 88.6940049,54.6687336 85.9179852,59.4025513 C83.1419655,64.1363691 78.0271925,66.9842287 72.5594651,66.8404553 L72.497629,66.8404553 L72.497629,82.0786402 C72.497629,85.344705 69.8592904,87.9948241 66.6077442,87.9948241 L42.28556,87.9948241 L42.28556,78.0672294 C42.2855598,74.716911 39.5816633,72.0009414 36.246238,72.0009414 C32.9108127,72.0009414 30.2069162,74.716911 30.206916,78.0672294 L30.206916,88 L5.88473181,88 C2.6338508,87.9971431 0,85.349214 0,82.0838161 L0,57.782431 L9.08474799,57.782431 C12.4084568,57.781958 15.1026054,55.0753963 15.1026054,51.7368468 C15.1026054,48.3982972 12.4084568,45.6917355 9.08474799,45.6912626 L0,45.6912626 Z" id="形状" stroke="#000000" stroke-width="1.5" fill="#FFE502"></path>
            </g>
        </g>
    </g>
</svg>